<svg id="Layer_1" xmlns="http://www.w3.org/2000/svg" viewBox="0 0 128 128">
  <g style="fill:#ce0e2d">
	<path d="M16.79 22.28h10.03v.58h-3.4l5.34 13 5.55-13h-3.4v-.58h6.3v.58h-2.23l-7.84 18.56-7.54-18.56h-2.8v-.58z"/>
  	<path d="M38.47 32.07c0 .23 0 .47-.02.7l-.02.92c0 .76.05 1.56.14 2.39.1.82.3 1.57.6 2.24a4.3 4.3 0 0 0 1.39 1.66 4.1 4.1 0 0 0 2.43.65c1.01 0 1.85-.15 2.5-.45a4.61 4.61 0 0 0 2.4-2.38 14 14 0 0 0 .42-1.07l.52.1c-.07.26-.2.62-.4 1.1a5.27 5.27 0 0 1-2.66 2.64c-.73.35-1.66.53-2.81.53a9 9 0 0 1-3.2-.55 7.29 7.29 0 0 1-4.2-4.05 8.33 8.33 0 0 1 .02-6.14 8.33 8.33 0 0 1 4.13-4.3 7.02 7.02 0 0 1 5.12-.33 6.1 6.1 0 0 1 3.65 3.17c.42.85.64 1.9.64 3.17H38.47zm7.12-.5c.05-.32.07-.62.07-.9v-.86c0-.78-.07-1.42-.22-1.93a3.1 3.1 0 0 0-.63-1.2 2.2 2.2 0 0 0-.96-.64 3.87 3.87 0 0 0-1.23-.2 3.7 3.7 0 0 0-1.94.47c-.5.31-.9.73-1.2 1.26a6.5 6.5 0 0 0-.68 1.83c-.15.69-.25 1.41-.3 2.17h7.09z"/>
  	<path d="M50.8 40.15h2.67V26.32H50.8v-.5h5.57v3.7h.07c.14-.3.34-.67.6-1.13a6.03 6.03 0 0 1 5.34-2.94 5.9 5.9 0 0 1 3.7 1.1c.96.74 1.44 1.92 1.44 3.53v10.07h2.66v.48h-8.3v-.48h2.65V28.99c0-.9-.2-1.63-.63-2.2-.43-.58-1.09-.87-1.98-.87-.74 0-1.44.16-2.1.48-.67.33-1.25.78-1.76 1.35a6.4 6.4 0 0 0-1.19 2.04 7.37 7.37 0 0 0-.43 2.55v7.81h2.66v.48h-8.3v-.48z"/>
  	<path d="M80.53 15.74h5.64v24.41h2.66v.48h-5.57v-3.01h-.07c-.1.27-.23.6-.42 1-.18.39-.45.77-.8 1.13a4.5 4.5 0 0 1-3.33 1.35 6.6 6.6 0 0 1-2.9-.65 8.11 8.11 0 0 1-4.04-4.3 7.67 7.67 0 0 1-.01-5.98 7.95 7.95 0 0 1 3.9-4.15c.87-.43 1.8-.64 2.8-.64a4.8 4.8 0 0 1 3.07.93 5.04 5.04 0 0 1 1.65 2.27h.09l-.01-12.36h-2.66v-.48zm-5.98 16.98c0 1.2.04 2.29.1 3.27.08.98.25 1.81.53 2.5.27.7.68 1.22 1.24 1.59.55.37 1.3.55 2.24.55.97 0 1.75-.2 2.33-.62a4.2 4.2 0 0 0 1.37-1.6c.32-.66.54-1.4.65-2.2.12-.8.18-1.59.18-2.35a39 39 0 0 0-.06-2.33c-.03-.66-.1-1.24-.18-1.74a6 6 0 0 0-.97-2.35 4.1 4.1 0 0 0-1.35-1.14 4.39 4.39 0 0 0-2.1-.45 3.8 3.8 0 0 0-2 .48c-.5.32-.91.79-1.2 1.38-.29.6-.49 1.32-.6 2.16-.12.84-.18 1.8-.18 2.85z"/>
  	<path d="M90.58 40.15h2.65V26.32h-2.65v-.5h5.64v14.33h2.66v.48h-8.3v-.48zm2.22-20.04c0-.5.18-.94.54-1.3a1.8 1.8 0 0 1 1.3-.53 1.81 1.81 0 0 1 1.83 1.83 1.81 1.81 0 0 1-1.83 1.84c-.51 0-.94-.18-1.3-.54a1.77 1.77 0 0 1-.54-1.3z"/>
  </g>
  <g opacity=".8" style="fill:#615d59">
    <path d="M47.22 59.96l6.67-9.49h.3l.25 9.49h1.43l-.05.18h-4.1l.06-.18h1.45l-.08-3.73h-3.06l-2.6 3.73h1.34l-.06.18h-2.73l.05-.18h1.13zM53.07 52l-2.85 4.04h2.93L53.09 52h-.02z"/>
    <path d="M61.06 59.13c-.05.21-.08.4-.08.57 0 .23.11.35.33.35a.8.8 0 0 0 .48-.15 2.36 2.36 0 0 0 .62-.73l.14-.28.17.1c-.04.1-.11.21-.2.37a2.07 2.07 0 0 1-.84.79c-.18.1-.4.15-.65.15-.58 0-.88-.27-.88-.8l.05-.32c.02-.16.06-.3.1-.42h-.03l-.42.5a3.76 3.76 0 0 1-1.2.89 2 2 0 0 1-.8.15c-.18 0-.36-.03-.53-.1a1.26 1.26 0 0 1-.46-.3 1.43 1.43 0 0 1-.32-.53 2.84 2.84 0 0 1 .1-1.82 4.98 4.98 0 0 1 1.34-1.92c.3-.27.6-.51.9-.72.31-.2.61-.36.9-.47.3-.12.57-.18.8-.18.27 0 .5.08.68.23.18.15.28.35.28.6h.02l1.73-4.87h-1.17l.06-.19h2.1l-3 8.43c-.09.24-.16.46-.22.67zm.3-3.55c.03-.12.05-.23.05-.32l-.03-.26a.74.74 0 0 0-.35-.47.76.76 0 0 0-.4-.08c-.28 0-.57.09-.85.25s-.54.38-.78.64c-.25.27-.47.57-.67.91a8.17 8.17 0 0 0-.87 2.06 3.7 3.7 0 0 0-.12.86c0 .29.06.52.17.7.1.17.3.26.55.26.26 0 .52-.08.78-.24a4.06 4.06 0 0 0 1.31-1.24c.16-.22.26-.4.3-.52l.7-1.95c.11-.28.18-.48.21-.6z"/>
    <path d="M64.63 59.6c0-.14-.02-.27-.05-.38l-.12-.36-.28-.77a6.5 6.5 0 0 1-.22-.62 2 2 0 0 1-.1-.62c0-.4.14-.81.43-1.23.28-.4.65-.81 1.12-1.21l.28-.24.11.13-.25.27a3.31 3.31 0 0 0-.68 1c-.1.21-.14.43-.14.67 0 .34.04.65.13.93.08.29.19.59.31.9l.2.57c.05.18.08.34.09.49l.7-.57c.27-.22.54-.46.78-.72.25-.26.46-.53.64-.83a1.78 1.78 0 0 0 .19-1.4l-.15-.33-.16-.28a.67.67 0 0 1-.06-.3c0-.16.06-.27.18-.33.12-.07.26-.1.43-.1.44 0 .65.32.65.97 0 .29-.05.58-.16.85-.1.28-.24.55-.4.8a7.37 7.37 0 0 1-1.23 1.32l-.68.59a5.8 5.8 0 0 1-.53.42 5.51 5.51 0 0 0-1.01 1.08l-.18-.1c.1-.12.16-.32.16-.6z"/>
    <path d="M73.11 59.18a2.93 2.93 0 0 1-1.12.93c-.27.13-.6.19-.97.19-.38 0-.7-.06-.96-.19a1.87 1.87 0 0 1-1-1.12 2.27 2.27 0 0 1-.1-.68c0-.45.1-.9.32-1.38a5.2 5.2 0 0 1 2.04-2.28 2.66 2.66 0 0 1 1.88-.32c.18.04.34.1.48.18.14.08.26.18.35.3.09.13.13.28.13.45 0 .24-.06.45-.2.64-.12.18-.29.33-.49.46s-.43.24-.67.33a5.17 5.17 0 0 1-1.34.3 4.2 4.2 0 0 1-1.23-.01c-.1.28-.18.56-.24.84-.07.28-.1.57-.1.89 0 .47.12.83.37 1.07.24.23.56.35.93.35.29 0 .54-.06.75-.17a2.93 2.93 0 0 0 .98-.85l.27-.36.16.09c-.06.06-.13.17-.24.34zm.06-4.54c-.1-.13-.28-.19-.53-.19-.28 0-.54.08-.8.24-.25.16-.47.36-.68.6a4.57 4.57 0 0 0-.87 1.5c.2.04.43.06.67.06a2.79 2.79 0 0 0 1.66-.54c.21-.16.39-.34.52-.55.12-.22.19-.44.19-.67a.67.67 0 0 0-.16-.45z"/>
    <path d="M76.15 55.35l.21-.72H75.2l.06-.18h2.04a15.22 15.22 0 0 1-.46 1.52l.03.03.33-.48c.13-.19.28-.36.45-.54.17-.17.35-.31.56-.44.2-.11.42-.17.65-.17.33 0 .58.09.75.27.17.2.25.39.25.6 0 .14-.03.26-.08.35a.55.55 0 0 1-.18.22.7.7 0 0 1-.23.1 1.1 1.1 0 0 1-.23.02.48.48 0 0 1-.3-.09c-.09-.06-.13-.16-.13-.28 0-.1.02-.17.06-.22l.13-.14.12-.14a.34.34 0 0 0 .07-.22.26.26 0 0 0-.11-.2.44.44 0 0 0-.27-.09c-.17 0-.36.09-.58.26a4 4 0 0 0-.66.66 6.9 6.9 0 0 0-1.1 1.96l-.95 2.71h-.94l1.44-4.09.23-.7z"/>
    <path d="M83.09 53.14l-.48 1.3h1.45l-.06.18h-1.45l-1.51 4.23-.13.41a1.4 1.4 0 0 0-.07.43c0 .13.03.24.1.32.07.08.17.12.33.12a.8.8 0 0 0 .45-.15 2.58 2.58 0 0 0 .85-1.05l.16.07-.18.32a1.86 1.86 0 0 1-.82.82c-.2.1-.43.16-.7.16-.34 0-.6-.08-.76-.25a.8.8 0 0 1-.25-.59c0-.17.03-.38.1-.6.06-.23.13-.43.2-.62l1.3-3.62h-1.2l.06-.18h1.2l.48-1.3h.93z"/>
    <path d="M84.2 54.62l.06-.18h2.1l-1.56 4.5-.13.4c-.05.15-.07.28-.07.4 0 .1.03.2.1.27.05.08.15.12.27.12.14 0 .28-.05.42-.15a2.3 2.3 0 0 0 .67-.73l.18-.32.15.07-.16.32a1.88 1.88 0 0 1-.8.82c-.2.1-.43.16-.7.16-.29 0-.52-.06-.7-.18-.17-.12-.25-.32-.25-.6 0-.15.02-.32.08-.5l.15-.5 1.37-3.9H84.2zm2.19-3.75a.6.6 0 0 1 .44-.18.6.6 0 0 1 .45.18.6.6 0 0 1 .18.44.6.6 0 0 1-.18.44.6.6 0 0 1-.45.18.6.6 0 0 1-.62-.62.6.6 0 0 1 .18-.44z"/>
    <path d="M88.66 56.67a1.11 1.11 0 0 1-.17-.62c0-.2.05-.41.16-.63a2.14 2.14 0 0 1 1.1-1c.27-.1.55-.15.85-.15.37 0 .67.08.9.24.22.17.34.38.34.63 0 .38-.19.56-.55.56a.52.52 0 0 1-.33-.1.36.36 0 0 1-.14-.31c0-.12.03-.21.1-.27a.3.3 0 0 0 .08-.22c0-.23-.15-.35-.45-.35-.21 0-.4.03-.55.1a1.07 1.07 0 0 0-.6.6.98.98 0 0 0-.08.4c0 .18.04.35.13.5l.37.56.79 1.02c.1.13.17.27.21.42.05.14.06.3.06.44 0 .3-.07.57-.22.8-.16.22-.35.4-.57.56a2.68 2.68 0 0 1-2.06.39 2.01 2.01 0 0 1-.5-.2 1.08 1.08 0 0 1-.35-.32.77.77 0 0 1-.13-.44c0-.2.06-.36.2-.46.12-.1.28-.15.48-.15.08 0 .15.02.22.08.06.06.1.13.1.2a.7.7 0 0 1-.07.3.7.7 0 0 0-.07.3c0 .22.07.37.2.45.15.08.33.13.55.13a1.52 1.52 0 0 0 1.03-.37c.12-.11.2-.23.27-.36.06-.14.1-.26.1-.38 0-.17-.04-.33-.1-.47a2.1 2.1 0 0 0-.28-.48l-.66-.88a8.24 8.24 0 0 1-.36-.52z"/>
    <path d="M92.93 54.62l.05-.18h2.11l-1.57 4.5-.13.4c-.04.15-.06.28-.06.4 0 .1.03.2.09.27.06.08.15.12.28.12.14 0 .28-.05.42-.15a2.37 2.37 0 0 0 .67-.73l.17-.32.16.07-.17.32a1.87 1.87 0 0 1-.8.82c-.2.1-.43.16-.7.16-.29 0-.52-.06-.7-.18-.16-.12-.25-.32-.25-.6a4.92 4.92 0 0 1 .24-1l1.37-3.9h-1.18zm2.18-3.75a.6.6 0 0 1 .45-.18.6.6 0 0 1 .44.18.6.6 0 0 1 .18.44.6.6 0 0 1-.18.44.6.6 0 0 1-.44.18.6.6 0 0 1-.45-.18.6.6 0 0 1-.18-.44.6.6 0 0 1 .18-.44z"/>
    <path d="M96.5 54.63l.06-.18h2.1l-.54 1.63h.02c.86-1.14 1.67-1.71 2.44-1.71.37 0 .66.1.88.3.22.2.33.44.33.73 0 .15-.03.3-.08.45-.05.14-.1.32-.18.52l-.86 2.46-.15.44c-.04.15-.06.3-.06.43 0 .11.02.2.06.3.05.08.14.13.28.13.16 0 .3-.05.44-.13a2.38 2.38 0 0 0 .65-.71l.19-.36.14.07-.18.35a2.13 2.13 0 0 1-.78.8c-.2.1-.41.15-.67.15-.28 0-.52-.06-.72-.19-.2-.12-.3-.32-.3-.6 0-.12.02-.24.05-.37l.12-.4 1.12-3.17c.07-.21.1-.4.1-.53a.56.56 0 0 0-.11-.34c-.08-.1-.21-.16-.4-.16-.2 0-.43.08-.69.22a3.8 3.8 0 0 0-.77.6 5.52 5.52 0 0 0-1.27 2l-1 2.78h-.92l1.92-5.5H96.5z"/>
    <path d="M107.24 60c.33.22.5.6.5 1.1 0 .3-.08.63-.23.97a3.43 3.43 0 0 1-4.92 1.43 1.86 1.86 0 0 1-.55-.54c-.13-.2-.2-.41-.2-.63 0-.21.05-.41.15-.6a2.55 2.55 0 0 1 .81-.91l.4-.26.37-.2-.3-.1a1.2 1.2 0 0 1-.32-.15.82.82 0 0 1-.25-.3.97.97 0 0 1-.1-.49c0-.27.07-.52.21-.73.14-.22.38-.42.72-.6l.49-.26a1.39 1.39 0 0 1-.4-1.03c0-.32.08-.63.25-.92a3.35 3.35 0 0 1 1.53-1.31c.32-.14.63-.2.94-.2a2.07 2.07 0 0 1 1.06.28 1.62 1.62 0 0 1 .55.55c.1-.15.23-.31.38-.47a.84.84 0 0 1 .64-.23c.23 0 .43.08.6.24.17.16.26.35.26.58 0 .16-.04.3-.13.4-.09.1-.24.15-.44.15a.51.51 0 0 1-.31-.1.29.29 0 0 1-.13-.23c0-.08.02-.14.04-.19a.6.6 0 0 1 .1-.12.51.51 0 0 0 .09-.12.44.44 0 0 0 .04-.21.2.2 0 0 0-.07-.15.25.25 0 0 0-.18-.06c-.14 0-.28.06-.42.2-.14.13-.25.3-.35.5a1.36 1.36 0 0 1 .2.69c0 .28-.08.56-.25.84a3.4 3.4 0 0 1-1.5 1.27c-.3.13-.6.2-.9.2a2.26 2.26 0 0 1-1.44-.41l-.27.13c-.29.13-.5.28-.65.45a.73.73 0 0 0-.22.48c0 .2.1.34.29.43.19.1.5.15.92.18l1.7.08c.53.03.95.15 1.29.37zm-4.35 1.35c-.12.24-.18.55-.18.92 0 .29.05.52.14.72a1.37 1.37 0 0 0 .9.73 3.05 3.05 0 0 0 1.7-.11c.34-.13.64-.3.9-.5.27-.2.47-.44.62-.7.15-.27.23-.54.23-.83 0-.14-.02-.27-.07-.4s-.13-.25-.25-.35a1.4 1.4 0 0 0-.47-.25c-.2-.07-.43-.1-.72-.11l-1.88-.07-.37.3a2 2 0 0 0-.55.65zm1.94-3.47c.19.15.45.23.79.23.29 0 .55-.09.76-.27.22-.18.4-.4.54-.66.15-.26.25-.54.32-.85.06-.3.1-.58.1-.84 0-.39-.1-.66-.3-.81a1.2 1.2 0 0 0-.74-.23c-.28 0-.52.1-.74.28-.21.18-.4.4-.54.65a3.36 3.36 0 0 0-.47 1.61c0 .44.1.73.28.89z"/>
  </g>
  <path d="M35.32 92.5l-.83 2.55H33.4l2.75-8.08h1.25l2.76 8.08h-1.12l-.86-2.54h-2.87zm2.67-.8l-.8-2.33c-.19-.53-.3-1.01-.43-1.48h-.02c-.12.47-.24.97-.4 1.46l-.8 2.34H38z"/>
  <path d="M41.29 86.54h1.04v3.64h.03c.37-.65 1.04-1.05 1.98-1.05 1.45 0 2.45 1.2 2.45 2.95 0 2.07-1.31 3.1-2.61 3.1a2.1 2.1 0 0 1-1.95-1.08h-.03l-.06.95h-.9c.03-.4.05-.98.05-1.5v-7.01zm1.04 6.18a1.62 1.62 0 0 0 1.63 1.62c1.12 0 1.77-.9 1.77-2.23 0-1.16-.6-2.16-1.74-2.16-.71 0-1.38.5-1.6 1.3-.03.13-.06.27-.06.44v1.03z"/>
  <path d="M52.2 93.66c0 .5.02 1 .08 1.4h-.95l-.08-.74h-.04c-.32.46-.95.86-1.77.86-1.18 0-1.78-.82-1.78-1.66 0-1.4 1.25-2.18 3.5-2.16v-.12c0-.47-.14-1.35-1.33-1.33a2.8 2.8 0 0 0-1.52.43l-.24-.71c.48-.3 1.19-.5 1.92-.5 1.77 0 2.2 1.2 2.2 2.36v2.17zm-1.02-1.57c-1.16-.03-2.46.18-2.46 1.3 0 .7.45 1.01.98 1.01.77 0 1.26-.48 1.43-.97.03-.12.05-.24.05-.33v-1.01z"/>
  <path d="M53.9 90.82c0-.61-.01-1.1-.05-1.57h.94l.06.96h.02c.3-.54.96-1.08 1.92-1.08.8 0 2.05.48 2.05 2.47v3.45H57.8v-3.34c0-.94-.35-1.72-1.35-1.72a1.52 1.52 0 0 0-1.48 1.57v3.5H53.9v-4.24z"/>
  <path d="M65.56 86.54v7.01c0 .52.03 1.1.05 1.5h-.94l-.04-1h-.04a2.1 2.1 0 0 1-1.95 1.13c-1.4 0-2.5-1.18-2.5-2.95-.01-1.93 1.2-3.1 2.6-3.1.9 0 1.5.42 1.76.87h.02v-3.46h1.04zm-1.04 5.07c0-.13-.01-.31-.05-.44a1.55 1.55 0 0 0-1.52-1.22c-1.1 0-1.74.96-1.74 2.23 0 1.18.59 2.15 1.71 2.15a1.6 1.6 0 0 0 1.55-1.26c.04-.14.05-.29.05-.45V91.6z"/>
  <path d="M72.58 92.1c0 2.15-1.5 3.08-2.89 3.08-1.56 0-2.78-1.15-2.78-2.98 0-1.93 1.28-3.07 2.88-3.07 1.67 0 2.8 1.2 2.8 2.97zm-4.6.06c0 1.27.73 2.23 1.76 2.23 1 0 1.76-.95 1.76-2.25 0-.99-.49-2.22-1.74-2.22-1.23 0-1.77 1.15-1.77 2.24z"/>
  <path d="M73.92 90.82c0-.61-.01-1.1-.05-1.57h.94l.05.96h.03c.29-.54.96-1.08 1.92-1.08.8 0 2.05.48 2.05 2.47v3.45H77.8v-3.34c0-.94-.34-1.72-1.34-1.72a1.52 1.52 0 0 0-1.49 1.57v3.5h-1.05v-4.24z"/>
  <path d="M81.17 92.34c.02 1.43.92 2.02 1.99 2.02.75 0 1.22-.14 1.6-.3l.2.75c-.38.17-1.02.37-1.95.37-1.78 0-2.85-1.18-2.85-2.94s1.03-3.11 2.72-3.11c1.9 0 2.4 1.65 2.4 2.72 0 .21-.01.37-.04.49h-4.07zm3.09-.76c.01-.66-.28-1.7-1.46-1.7-1.08 0-1.54.97-1.62 1.7h3.08z"/>
  <path d="M91.59 86.54v7.01c0 .52.02 1.1.05 1.5h-.94l-.05-1h-.03a2.1 2.1 0 0 1-1.96 1.13c-1.4 0-2.49-1.18-2.49-2.95-.01-1.93 1.2-3.1 2.6-3.1.9 0 1.49.42 1.75.87h.03v-3.46h1.04zm-1.04 5.07c0-.13-.02-.31-.05-.44a1.55 1.55 0 0 0-1.52-1.22c-1.1 0-1.74.96-1.74 2.23 0 1.18.58 2.15 1.71 2.15a1.6 1.6 0 0 0 1.55-1.26c.03-.14.05-.29.05-.45V91.6z"/>
  <path d="M31.18 101.46c.5-.08 1.16-.15 2-.15 1.03 0 1.79.24 2.27.67.43.38.7.97.7 1.69 0 .73-.2 1.3-.62 1.73-.56.59-1.45.89-2.47.89-.3 0-.6-.02-.84-.08v3.24h-1.04v-7.99zm1.04 3.9c.23.06.52.09.87.09 1.26 0 2.02-.63 2.02-1.72 0-1.08-.76-1.6-1.9-1.6-.46 0-.8.04-.99.09v3.14z"/>
  <path d="M37.47 100.94h1.05v8.51h-1.05v-8.51z"/>
  <path d="M45.16 107.86c0 .6 0 1.14.04 1.6h-.93l-.06-.96h-.02a2.17 2.17 0 0 1-1.92 1.08c-.91 0-2-.51-2-2.54v-3.4h1.05v3.2c0 1.11.35 1.87 1.3 1.87a1.52 1.52 0 0 0 1.48-1.51v-3.55h1.06v4.2z"/>
  <path d="M51.88 108.6c0 1.34-.28 2.15-.83 2.66-.58.52-1.4.7-2.12.7-.7 0-1.47-.17-1.93-.48l.26-.82c.38.25.98.47 1.7.47 1.08 0 1.87-.56 1.87-2.04v-.63h-.02c-.31.54-.95.97-1.85.97-1.44 0-2.47-1.23-2.47-2.83 0-1.97 1.29-3.07 2.63-3.07 1 0 1.55.51 1.81 1h.02l.04-.88h.93c-.03.4-.04.88-.04 1.58v3.37zm-1.06-2.66c0-.18-.01-.34-.06-.47a1.5 1.5 0 0 0-1.47-1.13c-1.01 0-1.73.85-1.73 2.2 0 1.14.59 2.08 1.71 2.08.66 0 1.25-.4 1.47-1.08.06-.18.08-.38.08-.56v-1.04z"/>
  <path d="M54.72 102.02c0 .36-.25.64-.67.64-.38 0-.63-.28-.63-.64s.26-.66.66-.66c.38 0 .64.28.64.66zm-1.17 7.43v-5.8h1.05v5.8h-1.05z"/>
  <path d="M56.36 105.22c0-.61-.02-1.1-.05-1.57h.93l.06.96h.03c.28-.54.96-1.08 1.92-1.08.8 0 2.05.48 2.05 2.47v3.45h-1.06v-3.34c0-.94-.35-1.72-1.34-1.72a1.52 1.52 0 0 0-1.49 1.57v3.5h-1.05v-4.24z"/>
  <path d="M71.23 109.2a5 5 0 0 1-2.13.38c-2.28 0-3.98-1.44-3.98-4.1 0-2.54 1.71-4.24 4.22-4.24 1 0 1.64.21 1.92.36l-.27.85a3.7 3.7 0 0 0-1.62-.34c-1.9 0-3.15 1.21-3.15 3.34 0 1.99 1.14 3.25 3.1 3.25.64 0 1.29-.14 1.7-.34l.21.84z"/>
  <path d="M72.52 100.94h1.05v3.63h.03a2.02 2.02 0 0 1 1.83-1.04c.78 0 2.03.48 2.03 2.47v3.45H76.4v-3.33c0-.94-.34-1.72-1.34-1.72a1.53 1.53 0 0 0-1.49 1.55v3.5h-1.05v-8.51z"/>
  <path d="M79.77 106.74c.02 1.43.92 2.02 1.99 2.02.75 0 1.22-.14 1.6-.3l.2.75a4.7 4.7 0 0 1-1.95.37c-1.78 0-2.85-1.18-2.85-2.94s1.03-3.11 2.72-3.11c1.9 0 2.4 1.65 2.4 2.72 0 .21-.01.37-.04.49h-4.07zm3.1-.75c0-.66-.28-1.7-1.47-1.7-1.08 0-1.54.96-1.62 1.7h3.08z"/>
  <path d="M89.33 109.25c-.28.13-.89.33-1.67.33-1.75 0-2.89-1.18-2.89-2.96 0-1.79 1.22-3.1 3.12-3.1.62 0 1.18.16 1.46.32l-.24.8a2.59 2.59 0 0 0-1.22-.27c-1.33 0-2.05 1-2.05 2.2 0 1.33.86 2.16 2.01 2.16.6 0 1-.14 1.3-.27l.18.79z"/>
  <path d="M91.61 106.3h.02l.5-.65 1.72-2h1.26l-2.23 2.38 2.56 3.42h-1.3l-1.99-2.78-.54.6v2.18h-1.04v-8.51h1.04v5.37z"/>
</svg>
